# xmcd
#
# Track frame offsets:
#	150
#	17482
#	33659
#	49071
#	66498
#	80443
#	93871
#	107535
#	125485
#	139314
#	153772
#	173287
#	191634
#	205520
#	226267
#	242592
#	258894
#	280046
#	298973
#	316213
#	333957
#	348128
#
# Disc length: 4839 seconds
#
# Revision: 1
# Processed by: cddbd v1.5.2PL0 Copyright (c) Steve Scherf et al.
# Submitted via: audiograbber 1.83.01
#
DISCID=2712e516
DTITLE=Gunter Gabriel - Best Of (2016)
DYEAR=2016
DGENRE=Deutsch Country
TTITLE0=Gunter Gabriel - Mit dem Hammer in der Hand (Das Lied vom einfachen Man
TTITLE0=n)
TTITLE1=Gunter Gabriel - Sechs Dinge braucht der Mann
TTITLE2=Gunter Gabriel - Ich bin ein Berliner
TTITLE3=Gunter Gabriel - Ich schlaf' nicht gern allein
TTITLE4=Gunter Gabriel - Worte, die ich leider nie gesagt
TTITLE5=Gunter Gabriel - Hey Boss, ich brauch mehr Geld
TTITLE6=Gunter Gabriel - Papa trinkt Bier
TTITLE7=Gunter Gabriel - Da kannst Du wackeln mit dem Po
TTITLE8=Gunter Gabriel - Heute trinken wir auf alles, was wir lieben
TTITLE9=Gunter Gabriel - Leg' mir doch nicht immer wieder Steine in den Weg
TTITLE10=Gunter Gabriel - Wer einmal tief im Keller sass
TTITLE11=Gunter Gabriel - Das Johnny Cash-Konzert
TTITLE12=Gunter Gabriel - Mein Laster ist mein Laster
TTITLE13=Gunter Gabriel - Er ist ein Kerl (der 30-Tonner Diesel)
TTITLE14=Gunter Gabriel - Willy Klein, der Fernsehmann
TTITLE15=Gunter Gabriel - Komm Charly, fang mich Charly
TTITLE16=Gunter Gabriel - Es steht ein Haus in West-Berlin
TTITLE17=Gunter Gabriel - Intercity Linie Nr. 4
TTITLE18=Gunter Gabriel - Ich bin CB-Funker
TTITLE19=Gunter Gabriel - Komm unter meine Decke
TTITLE20=Gunter Gabriel - Deutschland ist...
TTITLE21=Juliane Werding mit Gunter Gabriel - Wenn du denkst du denkst, dann de
TTITLE21=nkst du nur du denkst
EXTD=2016\n\nMARO\n
EXTT0=
EXTT1=
EXTT2=
EXTT3=
EXTT4=
EXTT5=
EXTT6=
EXTT7=
EXTT8=
EXTT9=
EXTT10=
EXTT11=
EXTT12=
EXTT13=
EXTT14=
EXTT15=
EXTT16=
EXTT17=
EXTT18=
EXTT19=
EXTT20=
EXTT21=
PLAYORDER=
